# xmcd
#
# Track frame offsets: 
#        150
#        12487
#        23357
#        33735
#        46755
#        60387
#        73632
#        86592
#        98135
#        109850
#        119420
#        137132
#        148727
#        160512
#        171960
#        193805
#        208500
#        219437
#
# Disc length: 3054 seconds
#
# Revision: 3
# Processed by: cddbd v1.5.2PL0 Copyright (c) Steve Scherf et al.
# Submitted via: ExactAudioCopy v0.99pb4
#
DISCID=fa0bec12
DTITLE=Various Artist - Jubilation!  Great Gospel Performances  Volume 3: Cou
DTITLE=ntry Gospel
DYEAR=1992
DGENRE=Gospel
TTITLE0=Hank Williams - I Saw The Light
TTITLE1=Lester Flatt, Earl Scruggs and The Foggy Mountain Boys - Preachi
TTITLE1=n', Prayin', Singin'
TTITLE2=Kitty Wells - Lonesome Valley
TTITLE3=The Louvin Brothers - The Family Who Prays
TTITLE4=The Carter Family - God Gave Noah the Rainbow Sign
TTITLE5=Roy Acruff and His Crazy Tennesseans - Great Speckle Bird
TTITLE6=Patsy Cline - Life's Railway To Heaven
TTITLE7=Webb Pierce - Bugle Call From Heaven
TTITLE8=Martha Carson - Satisfied
TTITLE9=Buck Owens and His Buckaroos - Pray Every Day
TTITLE10=Johnny Cash and The Carter Family - Were You There When They Cr
TTITLE10=ucified My Lord?
TTITLE11=George Jones and Tammy Wynette - Let's All Go Down to the River
TTITLE12=Bill Monroe and His Blue Grass Boys - A Voice From On High
TTITLE13=Ernest Tubb - When Jesus Calls
TTITLE14=The Nitty Gritty Dirt Band - Will The Circle Be Unbroken
TTITLE15=Merle Haggard and The Carter Family - Precious Memories
TTITLE16=Doyle Lawson and Quicksilver - Jesus Gave Me Water
TTITLE17=Ricky Skaggs and Tony Rice - Talk About Suffering
EXTD=YEAR: 1992
EXTT0=Hank Williams
EXTT1=Lester Flatt, Earl Scruggs and the Foggy Mountain Boys
EXTT2=Kitty Wells
EXTT3=The Louvin Brothers
EXTT4=The Carter Family
EXTT5=Roy Acuff and His Crazy Tennesseans
EXTT6=Patsy Cline
EXTT7=Webb Pierce
EXTT8=Martha Carson
EXTT9=Buck Owens and His Buckaroos
EXTT10=Johnny Cash and The Carter Family
EXTT11=George Jones and Tammy Wynette
EXTT12=Bill Monroe and His Blue Grass Boye
EXTT13=Earnest Tubb
EXTT14=The Nitty Gritty Dirt Band
EXTT15=Merle Haggard and The Carter Family
EXTT16=Doyle Lawson and Qucksilver
EXTT17=Ricky Skaggs and Tony Rice
PLAYORDER=
